<?xml version="1.0" encoding="UTF-8" standalone="no"?>
<!-- Created with Inkscape (http://www.inkscape.org/) -->

<svg
   version="1.1"
   id="svg1"
   width="64"
   height="64"
   viewBox="0 0 1000 1000"
   sodipodi:docname="logo_gastromic2.svg"
   inkscape:version="1.3.2 (091e20e, 2023-11-25, custom)"
   xmlns:inkscape="http://www.inkscape.org/namespaces/inkscape"
   xmlns:sodipodi="http://sodipodi.sourceforge.net/DTD/sodipodi-0.dtd"
   xmlns="http://www.w3.org/2000/svg"
   xmlns:svg="http://www.w3.org/2000/svg">
  <defs
     id="defs1" />
  <sodipodi:namedview
     id="namedview1"
     pagecolor="#ffffff"
     bordercolor="#000000"
     borderopacity="0.25"
     inkscape:showpageshadow="2"
     inkscape:pageopacity="0.0"
     inkscape:pagecheckerboard="0"
     inkscape:deskcolor="#d1d1d1"
     inkscape:zoom="3.8583845"
     inkscape:cx="-24.492116"
     inkscape:cy="21.382006"
     inkscape:window-width="1920"
     inkscape:window-height="1017"
     inkscape:window-x="1358"
     inkscape:window-y="-8"
     inkscape:window-maximized="1"
     inkscape:current-layer="g2"
     showgrid="false" />
  <g
     inkscape:groupmode="layer"
     inkscape:label="Image"
     id="g1">
    <g
       id="g2"
       transform="translate(1098.9056,257.10243)">
      <path
         style="fill:#f6836b;fill-opacity:1;stroke-width:1.57175"
         d="m -597.79876,745.16394 c -15.4706,-3.3407 -26.3387,-12.5786 -32.8328,-27.90793 -1.565,-3.69399 -2.036,-35.52274 -2.3446,-158.42458 -0.4249,-169.19601 -0.9803,-158.63631 8.851,-168.27045 7.6092,-7.45657 12.0159,-8.2288 47.6785,-8.35545 l 32.7202,-0.11616 0.6143,162.14935 c 0.515,135.95919 0.2737,163.33457 -1.494,169.48743 -6.4962,22.61115 -29.9302,36.46109 -53.1926,31.43785 z m 22.3922,-54.50135 c 14.4535,-14.40742 -2.086,-39.73364 -20.1227,-30.81299 -13.1658,6.51164 -13.3868,29.23022 -0.34,34.95994 5.8215,2.55662 15.7578,0.54293 20.4627,-4.14695 z m -3.9371,-236.55416 c 8.5471,-4.60473 11.4757,-17.55291 5.922,-26.18347 -3.8645,-6.0054 -8.5141,-8.45929 -16.1037,-8.4988 -5.0879,-0.0265 -7.2537,0.94476 -11.5856,5.19554 -4.7902,4.7004 -5.3249,6.04495 -5.2973,13.31993 0.027,7.14028 0.6317,8.70804 5.1419,13.33223 4.1704,4.27588 6.2549,5.23638 11.3251,5.21837 3.4176,-0.0124 8.1865,-1.08485 10.5976,-2.3838 z m -148.2411,212.65309 c -76.241,-25.63079 -154.2384,-83.41503 -202.8585,-150.28757 -14.6731,-20.18138 -27.7319,-40.33208 -27.726,-42.78291 0.01,-2.46709 35.8648,-25.29821 39.7553,-25.31204 0.7835,-0.004 2.6356,2.0942 4.1158,4.65993 4.1259,7.1519 24.7566,35.3692 31.5554,43.15928 12.9021,14.78323 29.3491,32.11698 40.8026,43.00243 14.9327,14.19219 39.5888,33.30729 41.0297,31.80905 0.5943,-0.61794 1.105,-43.17324 1.1349,-94.56736 l 0.054,-93.44382 29.1662,-0.10363 29.1661,-0.10362 0.4269,112.69622 0.4269,112.69622 10.1253,4.58265 c 5.5688,2.52046 13.3307,5.81257 17.2485,7.31582 l 7.1233,2.73317 -0.017,14.09637 c -0.018,15.46263 -2.6878,33.69541 -5.0408,34.42596 -0.8227,0.25541 -8.2429,-1.8039 -16.4894,-4.57624 z m 260.7897,1.70092 c -2.2917,-7.95015 -4.0537,-22.54522 -4.0969,-33.93581 -0.045,-11.88679 0.1815,-12.83085 3.3169,-13.82507 10.7438,-3.4067 38.0387,-15.51138 39.6163,-17.56889 1.4506,-1.89194 1.7708,-26.66205 1.4476,-111.97716 l -0.415,-109.54783 28.8274,0.31766 28.8274,0.31767 0.7277,90.08928 c 0.4002,49.5491 1.106,90.08792 1.5684,90.08628 2.8285,-0.01 29.5986,-23.76096 45.4039,-40.2831 48.0347,-50.21334 79.415,-103.82068 98.9385,-169.01792 2.7264,-9.10461 5.4098,-19.10057 5.963,-22.21319 l 1.0058,-5.65932 24.6728,-0.0877 24.6728,-0.0878 -1.0233,6.57686 c -0.5629,3.61729 -2.6402,13.1945 -4.6164,21.28273 -22.9929,94.10643 -77.2764,180.59269 -150.9194,240.44982 -34.3154,27.89156 -77.8093,53.62832 -114.9683,68.03059 -26.4529,10.2527 -27.9234,10.61095 -28.9492,7.05266 z m -521.7655,-254.97047 c -8.675,-19.51049 -19.94354,-57.6429 -23.29984,-78.84586 l -1.0399,-6.56953 24.04894,-0.0854 24.0489,-0.0854 2.3635,8.8848 c 4.8031,18.05544 12.0437,41.58325 15.4428,50.18026 1.9245,4.8675 3.5017,9.53706 3.5049,10.37678 0,0.83971 -6.5493,5.48556 -14.5612,10.32408 -8.0118,4.83853 -17.1059,10.48398 -20.2091,12.54542 l -5.6422,3.74813 z m 200.0869,-114.28154 -0.5375,-35.80033 -8.9943,-2.51533 c -26.088,-7.29568 -45.2308,-28.51851 -48.9315,-54.2483 -1.5478,-10.76104 -2.6502,-182.449941 -1.2078,-188.096641 0.8594,-3.36434 1.4965,-3.48525 18.6844,-3.5463 l 17.7947,-0.0633 0.3072,81.09688 c 0.1984,52.366681 0.8643,82.592721 1.8796,85.319201 3.4467,9.25595 14.0022,11.30364 21.2136,4.11531 l 4.1841,-4.17086 -0.3152,-83.228131 -0.3153,-83.22814 17.9693,-0.0639 17.9693,-0.0639 0.3108,82.04769 c 0.328,86.575061 0.5277,89.137021 7.1532,91.735521 7.3802,2.89448 16.3278,-0.61833 18.5491,-7.28232 1.0088,-3.0264 1.4467,-33.08146 1.2476,-85.629851 l -0.3067,-80.96676 17.9693,-0.0639 17.9693,-0.0639 0.1991,76.17136 c 0.1095,41.894251 -0.3068,86.446911 -0.9252,99.005911 -1.0556,21.43662 -1.4236,23.46835 -6.0115,33.18731 -8.7478,18.53124 -23.9577,31.58932 -43.378,37.24108 l -8.8428,2.57347 0.1297,34.23607 c 0.093,24.56589 -0.3759,34.76208 -1.6602,36.09839 -1.2125,1.26152 -8.2061,1.88512 -21.6783,1.93297 l -19.8884,0.0707 z m 168.6616,33.499 c -6.4176,-1.89295 -13.6648,-9.6014 -14.8052,-15.74748 -0.511,-2.7541 -0.8467,-56.14297 -0.7461,-118.64189 0.2021,-125.543081 0.1051,-123.976071 10.2757,-166.075381 10.7792,-44.61848 26.9767,-77.94719 53.0984,-109.25764 8.9496,-10.72741 21.0039,-21.8774 23.6618,-21.88684 0.7199,-0.002 1.4864,95.6933001 1.7311,216.136981 l 0.4392,216.14155 -3.3686,0.18744 -3.3685,0.18747 -0.7843,-207.03599 c -0.4314,-113.869751 -1.326,-207.034041 -1.988,-207.031691 -0.662,0.002 -3.3487,2.30699 -5.9704,5.12141 l -4.7668,5.11716 0.7273,196.347211 c 0.3995,107.99098 0.3195,198.95866 -0.1789,202.15037 l -0.9062,5.80313 -24.138,-0.0538 c -13.2759,-0.0295 -26.2865,-0.68747 -28.9125,-1.46204 z m 199.6887,-0.036 c -0.5512,-0.56516 -1.0871,-23.4376 -1.1908,-50.82771 l -0.1887,-49.80016 -8.8868,-3.31043 c -20.5938,-7.67141 -40.2334,-26.21667 -50.8182,-47.98659 -17.95,-36.9182 -13.9198,-83.062731 10.5519,-120.815021 9.3371,-14.40426 25.4141,-29.633 38.2773,-36.2576 10.462,-5.38795 12.9696,-6.02948 26.3568,-6.74297 17.6831,-0.94246 27.0182,0.96726 40.9807,8.38351 33.9764,18.04677 58.2945,61.93154 58.4595,105.496981 0.032,8.35547 -0.6776,18.80053 -1.576,23.21124 -2.2524,11.05681 -9.2307,28.23609 -15.3065,37.68148 -9.9394,15.45183 -28.5624,31.01286 -43.0102,35.93865 -4.3257,1.47479 -8.7046,3.37353 -9.7309,4.21942 -1.4226,1.17257 -1.8218,13.2132 -1.6799,50.67501 0.1644,43.37979 -0.091,49.248 -2.1789,50.08422 -3.221,1.28996 -38.8065,1.33436 -40.0593,0.0499 z m 37.4114,-138.42097 c 16.5197,-7.78691 24.8391,-23.43039 20.725,-38.97038 l -1.7416,-6.57841 -2.6677,5.41118 c -7.5384,15.29065 -25.175,28.40906 -44.4837,33.08779 -11.0329,2.67341 -12.5703,3.80381 -8.5104,6.25758 8.1907,4.95031 26.9955,5.35647 36.6784,0.79224 z m -697.23604,83.51359 c -7.5631,-3.81503 -12.2916,-11.98968 -12.3202,-21.29868 -0.03,-10.12863 4.0532,-17.10426 12.2998,-21.00693 5.9846,-2.83218 10.6997,-3.00921 88.35494,-3.31715 66.3816,-0.26331 82.9539,0.0776 86.8597,1.78699 13.5036,5.90975 18.4549,20.95436 11.1627,33.91861 -6.8584,12.19305 -4.3083,11.87843 -98.6682,12.17338 -73.52944,0.22991 -83.25654,-0.0204 -87.68874,-2.25622 z m 803.47444,-2.44182 c -7.2413,-2.66462 -9.2986,-4.48456 -12.2429,-10.8302 -5.1725,-11.14794 -1.5084,-25.10492 8.1498,-31.04354 4.8743,-2.99707 8.154,-3.13823 89.375,-3.84671 83.8839,-0.73172 84.3443,-0.71857 90.0554,2.5691 11.2951,6.50228 15.5401,22.0558 8.8239,32.33087 -1.8424,2.81875 -5.2464,6.5877 -7.5643,8.37545 -4.1445,3.19655 -5.5972,3.261 -87.5869,3.88497 -66.9932,0.50984 -84.48,0.22689 -89.01,-1.43994 z m -738.20484,-90.83799 c -0.015,-4.06234 4.9291,-30.80096 8.0579,-43.57547 12.04324,-49.170531 32.51784,-95.931301 61.72204,-140.96356086 19.4446,-29.98309014 52.8311,-68.41035014 76.6868,-88.26513014 5.7471,-4.78325 10.7846,-9.1331 11.1943,-9.66634 0.4098,-0.53323 11.3974,-8.422729 24.4169,-17.532219 32.8834,-23.00789 76.2224,-44.80651 108.503,-54.57486 4.48,-1.35569 8.6129,-1.94161 9.1843,-1.30204 1.4867,1.66434 4.2189,19.04522 5.4141,34.44287 l 1.0236,13.18563 -14.7729,5.98356 c -67.2694,27.246529 -120.0601,67.733219 -165.346,126.8083991 -19.8057,25.8363599 -28.1155,39.4898999 -43.4828,71.4445999 -14.0947,29.308721 -21.1451,48.965011 -27.9987,78.060151 l -6.1988,26.31492 -24.1992,0.51093 c -13.52434,0.28552 -24.20164,-0.0988 -24.20454,-0.87144 z m 798.95364,-7.33178 c -3.2202,-18.31473 -12.4303,-50.0685 -20.2783,-69.9135 -28.2172,-71.351931 -72.0224,-128.806351 -134.2283,-176.052341 -23.5737,-17.90448 -64.3764,-40.388679 -93.3681,-51.450159 l -11.5782,-4.41754 0.7397,-8.50916 c 1.3809,-15.88727 3.7234,-32.87581 5.027,-36.45872 1.4173,-3.89531 2.8723,-3.7615 19.4389,1.78787 80.5782,26.99154 160.4585,88.273979 210.4262,161.4344991 25.579,37.4516599 48.7778,86.3799599 60.7633,128.1554009 4.9296,17.18218 11.5893,49.26091 11.6309,56.02445 l 0.03,5.02647 -23.7917,0.0844 -23.7925,0.0844 z m -386.3246,-321.35296 c -33.1561,-8.18517 -49.757,-48.6681 -32.6715,-79.67241 16.1561,-29.3178 55.2241,-35.49219 78.9573,-12.4786 9.1569,8.87926 13.9948,18.23429 16.2251,31.37434 1.3924,8.20304 1.2367,11.39381 -0.9744,19.96182 -5.9103,22.90372 -20.2559,37.03991 -41.8543,41.24347 -10.2989,2.00441 -9.781,2.0157 -19.6822,-0.42862 z m 51.483,-62.03699 c 5.6324,-7.06283 -11.2042,-30.26765 -21.9335,-30.22954 -5.1995,0.0185 -4.2979,3.13602 3.0059,10.39333 3.5806,3.55774 7.7959,9.44838 9.3674,13.09033 3.8922,9.01985 6.3588,10.76034 9.5602,6.74588 z"
         id="path2" />
    </g>
  </g>
</svg>
