<?xml version="1.0" encoding="UTF-8" standalone="no"?>
<!-- Created with Inkscape (http://www.inkscape.org/) -->

<svg
   version="1.1"
   id="svg1"
   width="1024"
   height="1024"
   viewBox="0 0 1024 1024"
   sodipodi:docname="logo_gastromic.svg"
   inkscape:version="1.3.2 (091e20e, 2023-11-25, custom)"
   xmlns:inkscape="http://www.inkscape.org/namespaces/inkscape"
   xmlns:sodipodi="http://sodipodi.sourceforge.net/DTD/sodipodi-0.dtd"
   xmlns="http://www.w3.org/2000/svg"
   xmlns:svg="http://www.w3.org/2000/svg">
  <defs
     id="defs1" />
  <sodipodi:namedview
     id="namedview1"
     pagecolor="#ffffff"
     bordercolor="#000000"
     borderopacity="0.25"
     inkscape:showpageshadow="2"
     inkscape:pageopacity="0.0"
     inkscape:pagecheckerboard="0"
     inkscape:deskcolor="#d1d1d1"
     inkscape:zoom="0.48229806"
     inkscape:cx="758.86683"
     inkscape:cy="233.25825"
     inkscape:window-width="1920"
     inkscape:window-height="1017"
     inkscape:window-x="-8"
     inkscape:window-y="-8"
     inkscape:window-maximized="1"
     inkscape:current-layer="g2" />
  <g
     inkscape:groupmode="layer"
     inkscape:label="Image"
     id="g1">
    <g
       id="g2"
       transform="translate(1098.9056,257.10243)">
      <path
         style="fill:#dd6303"
         d="m -580.07751,579.67058 c -9.67758,-2.19549 -16.45976,-8.19333 -20.48911,-18.1196 -0.97098,-2.39199 -1.1904,-22.97234 -1.09214,-102.43676 0.13528,-109.39674 -0.2375,-102.57051 5.94035,-108.777 4.78149,-4.80366 7.54213,-5.29284 29.86932,-5.29284 h 20.4851 v 104.84107 c 0,87.90727 -0.216,105.60661 -1.33729,109.58076 -4.12062,14.60459 -18.82452,23.50563 -33.37623,20.20437 z m 14.1481,-35.18709 c 9.0829,-9.28211 -1.21175,-25.69507 -12.52492,-19.96872 -8.25804,4.17994 -8.45026,18.86841 -0.2958,22.60299 3.63856,1.66639 9.86406,0.38723 12.82072,-2.63427 z m -1.90389,-152.95604 c 5.36194,-2.95762 7.22608,-11.3227 3.76961,-16.91565 -2.40512,-3.89175 -5.31024,-5.48901 -10.06167,-5.53199 -3.18527,-0.0288 -4.5435,0.59419 -7.26563,3.33264 -3.01004,3.0281 -3.348,3.89621 -3.348,8.6 0,4.6167 0.37482,5.63174 3.1875,8.63193 2.60082,2.7742 3.90354,3.4 7.07781,3.4 2.13966,0 5.12784,-0.68262 6.64038,-1.51693 z m -93.31194,137.15305 c -47.67061,-16.74698 -96.36448,-54.2872 -126.64498,-97.63612 -9.13832,-13.08222 -17.26615,-26.14089 -17.2566,-27.72549 0.01,-1.59511 22.51346,-16.27451 24.94918,-16.27451 0.49054,0 1.64509,1.36007 2.56566,3.02238 2.56608,4.63362 15.41525,22.92525 19.65321,27.97762 8.04241,9.58791 18.29809,20.83303 25.44282,27.89746 9.31511,9.21043 24.70593,21.62614 25.61157,20.66075 0.37353,-0.39817 0.79419,-27.91166 0.9348,-61.14108 l 0.25565,-60.41713 h 18.25997 18.25997 v 72.86611 72.86611 l 6.32812,2.98622 c 3.48047,1.64242 8.33204,3.7888 10.78125,4.76974 l 4.45313,1.78353 -0.0438,9.11414 c -0.048,9.99751 -1.76265,21.78001 -3.23749,22.24695 -0.51563,0.16325 -5.15625,-1.18526 -10.3125,-2.99668 z m 163.26566,1.69862 c -1.41592,-5.14553 -2.48441,-14.5862 -2.48441,-21.95102 0,-7.68566 0.14404,-8.29553 2.10937,-8.93115 6.7343,-2.17797 23.85123,-9.94172 24.84375,-11.26841 0.91265,-1.21992 1.17188,-17.23461 1.17188,-72.39689 v -70.83046 l 18.04687,0.27159 18.04688,0.2716 0.24193,58.25 c 0.13306,32.0375 0.47879,58.25 0.76829,58.25 1.7708,0 18.5868,-15.29498 28.52103,-25.94127 30.19166,-32.35575 49.96471,-66.94417 62.34219,-109.05342 1.72848,-5.88044 3.43211,-12.33728 3.78584,-14.34852 l 0.64314,-3.65679 h 15.44682 15.44682 l -0.65626,4.25 c -0.36094,2.3375 -1.68421,8.525 -2.9406,13.75 -14.61806,60.79287 -48.80784,116.58697 -95.0547,155.11923 -21.54958,17.95483 -48.84032,34.49537 -72.13825,43.722 -16.58537,6.56826 -17.50686,6.79652 -18.14059,4.49351 z M -823.9308,364.32666 c -5.38478,-12.63468 -12.3491,-37.31553 -14.40004,-51.03228 l -0.63546,-4.25 h 15.05622 15.05621 l 1.45863,5.75 c 2.96418,11.685 7.44141,26.91382 9.54907,32.48013 1.19332,3.15157 2.16968,6.17435 2.16968,6.71728 0,0.54294 -4.11328,3.53172 -9.14063,6.64173 -5.02734,3.11001 -10.73419,6.73926 -12.68188,8.06499 l -3.54125,2.41043 z m 125.53721,-73.43067 -0.25165,-23.14838 -5.625,-1.64697 c -16.31526,-4.77702 -28.24946,-18.54287 -30.50534,-35.18727 -0.94348,-6.96124 -1.22646,-117.97134 -0.31002,-121.61898 0.54602,-2.17328 0.94517,-2.25 11.70595,-2.25 h 11.14066 v 52.43489 c 0,33.85878 0.34519,53.40333 0.97436,55.1685 2.13593,5.99246 8.73945,7.34066 13.27122,2.70951 l 2.62942,-2.6871 v -53.8129 -53.8129 h 11.25 11.25 v 53.04965 c 0,55.97693 0.11899,57.63386 4.26075,59.32916 4.61356,1.88841 10.22361,-0.36229 11.63009,-4.66588 0.63873,-1.95443 0.98416,-21.3859 0.98416,-55.36217 v -52.35076 h 11.25 11.25 l -0.056,49.24999 c -0.0308,27.0875 -0.39711,55.89262 -0.81405,64.01137 -0.71167,13.85769 -0.94689,15.17048 -3.84224,21.44386 -5.52059,11.96151 -15.07387,20.36945 -27.24551,23.97907 l -5.54222,1.6436 v 22.13605 c 0,15.88359 -0.31776,22.47499 -1.125,23.33605 -0.76206,0.81286 -5.14199,1.2 -13.57647,1.2 h -12.45147 z m 105.51263,22.04651 c -4.01332,-1.23865 -8.53219,-6.23929 -9.23156,-10.21573 -0.31339,-1.78188 -0.39698,-36.30187 -0.18576,-76.71109 0.42428,-81.17096 0.35986,-80.15802 6.82707,-107.35449 6.8542,-28.823873 17.07382,-50.335766 33.50179,-70.519936 5.62846,-6.91539 13.20158,-14.09687 14.86563,-14.09687 0.45072,0 0.70362,61.875093 0.57119,139.749996 l -0.23764,139.75 -2.10938,0.11346 -2.10937,0.11347 V 179.90784 c 0,-73.62489 -0.33912,-133.863456 -0.75359,-133.863456 -0.41448,0 -2.10198,1.48392 -3.75,3.2976 l -2.99641,3.29761 -0.0103,126.952386 c -0.006,69.82382 -0.27181,128.6399 -0.59141,130.7024 l -0.5811,3.75 -15.11171,-0.0902 c -8.31144,-0.0496 -16.45528,-0.50486 -18.09743,-1.01169 z m 125.01697,0.43521 c -0.34375,-0.36667 -0.625,-15.15637 -0.625,-32.86601 v -32.19934 l -5.5558,-2.1608 c -12.87478,-5.00734 -25.12635,-17.04311 -31.70141,-31.14303 -11.15022,-23.91113 -8.51762,-53.7372 6.89263,-78.09021 5.87974,-9.29181 15.98103,-19.10122 24.04985,-23.3549 6.56258,-3.45962 8.13402,-3.86865 16.5169,-4.29923 11.07289,-0.56874 16.91267,0.68744 25.63645,5.51458 21.22842,11.74638 36.34888,40.17646 36.34888,68.34461 0,5.40241 -0.46879,12.15416 -1.04175,15.0039 -1.4363,7.14374 -5.84589,18.23519 -9.6721,24.32828 -6.25933,9.96774 -17.9553,19.98615 -27.01215,23.1378 -2.71164,0.94361 -5.45759,2.16121 -6.10213,2.70578 -0.89343,0.75487 -1.17187,8.53897 -1.17187,32.76069 0,28.04811 -0.17375,31.84169 -1.48293,32.37756 -2.01958,0.82665 -24.29834,0.77364 -25.07957,-0.0597 z m 23.75,-89.41187 c 10.36077,-4.99679 15.60633,-15.09217 13.06751,-25.14919 l -1.07473,-4.25735 -1.68301,3.49254 c -4.75575,9.86905 -15.8284,18.31042 -27.92788,21.29117 -6.91359,1.70319 -7.87876,2.43054 -5.34283,4.02637 5.1161,3.21949 16.88804,3.52529 22.96094,0.59646 z m -436.70885,52.39562 c -4.72585,-2.48403 -7.66685,-7.78031 -7.66265,-13.79922 0.005,-6.54886 2.57814,-11.04966 7.75024,-13.55404 3.75341,-1.81744 6.70578,-1.92107 55.32325,-1.94186 41.55941,-0.0178 51.93381,0.24073 54.375,1.35488 8.44008,3.85202 11.50417,13.59068 6.90809,21.95613 -4.32266,7.8678 -2.72542,7.67024 -61.80093,7.64426 -46.0343,-0.0202 -52.12345,-0.2044 -54.893,-1.66015 z m 503.02809,0.26629 c -4.52718,-1.73946 -5.81088,-2.92089 -7.63913,-7.0305 -3.21186,-7.21972 -0.8848,-16.23537 5.17592,-20.05287 3.0587,-1.92661 5.11233,-2.01035 55.9631,-2.28191 52.518,-0.28046 52.80622,-0.27091 56.37386,1.86789 7.056,4.23007 9.67671,14.29613 5.44763,20.92419 -1.16015,1.81826 -3.30015,4.24731 -4.75555,5.39788 -2.60228,2.05725 -3.51192,2.09558 -54.84375,2.31074 -41.94289,0.1758 -52.88999,-0.0473 -55.72208,-1.13542 z m -461.94424,-60.42761 c 0,-2.6266 3.15893,-19.90343 5.14806,-28.15576 7.65637,-31.76416 20.58555,-61.95089 38.97592,-90.999993 12.24455,-19.341283 33.23759,-44.110233 48.21977,-56.892803 3.60937,-3.07947 6.77344,-5.88035 7.03125,-6.22418 0.25781,-0.34383 7.1554,-5.41965 15.32797,-11.2796 20.64154,-14.8005202 47.82595,-28.7951698 68.05868,-35.03689 2.80798,-0.86625 5.39682,-1.23559 5.75299,-0.82076 0.92686,1.07952 2.59612,12.32361024 3.30791,22.2818998 l 0.60952,8.5276802 -9.26291,3.83482 c -42.17918,17.4621 -75.32531,43.51804 -103.81704,81.609836 -12.46078,16.65933 -17.69561,25.46811 -27.39219,46.09353 -8.89366,18.91755 -13.35422,31.61037 -17.71401,50.40646 l -3.94319,17 -15.15137,0.27477 c -8.46763,0.15356 -15.15136,-0.1195 -15.15136,-0.61901 z m 500.20938,-2.90576 c -1.9726,-11.849 -7.6634,-32.40094 -12.52965,-45.25 -17.4964,-46.19827 -44.78477,-83.446723 -83.61723,-114.137046 -14.71608,-11.6305 -40.20767,-26.26163 -58.33192,-33.48014 l -7.23817,-2.88281 0.48324,-5.5 c 0.90226,-10.2689402 2.40905,-21.2477098 3.2337,-23.56129 0.89655,-2.51531 1.80713,-2.42545 12.16565,1.20061 50.38268,17.6367498 100.2471,57.4431 131.35631,104.860683 15.92515,24.273573 30.3329,55.962043 37.73748,82.999993 3.04549,11.12066 7.13877,31.87686 7.14878,36.25 l 0.007,3.25 h -14.89523 -14.89567 z M -580.62945,4.6326038 c -20.73824,-5.36835956 -31.03539,-31.5812198 -20.26532,-51.5882098 10.18422,-18.91868 34.65769,-22.82109 49.46151,-7.88687 5.7117,5.76202 8.71834,11.82174 10.08349,20.32272 0.85223,5.30698 0.74716,7.36965 -0.65738,12.90433 -3.75454,14.7951002 -12.76923,23.9020898 -26.30109,26.5703498 -6.45251,1.27233 -6.12824,1.28082 -12.32121,-0.32232 z m 32.37854,-39.9925598 c 3.54296,-4.55362 -6.94273,-19.59565 -13.65999,-19.59565 -3.25525,0 -2.69815,2.01777 1.85725,6.72684 2.23318,2.30852 4.85825,6.12687 5.83349,8.48523 2.41533,5.84083 3.95545,6.97183 5.96925,4.38358 z"
         id="path2" />
    </g>
  </g>
</svg>
